# xmcd
#
# Track frame offsets:
#	150
#	16304
#	31923
#	48383
#	63195
#	80610
#	95697
#	109173
#	125850
#	142496
#	158149
#	173625
#	188803
#
# Disc length: 2754 seconds
# Revision: 0
# Processed by: cddbd v1.5.2PL0 Copyright (c) Steve Scherf et al.
# Submitted via: dBpowerAMP V12.0
#
DISCID=b40ac00d
DTITLE=Graham Rodger - Ringers in the Sky
DYEAR=2018
DGENRE=Country
TTITLE0=Ringers In The Sky
TTITLE1=From The Top Rail
TTITLE2=I'm An Old Black Man
TTITLE3=The Tiny Bush Grave
TTITLE4=Sunrise On The Katherine
TTITLE5=I've Been A Fool Too Long
TTITLE6=My Kinda Country
TTITLE7=Child Of The Overflow
TTITLE8=Riding In The Bar
TTITLE9=Where The Three Rivers Flow
TTITLE10=The Pearl Of Them All
TTITLE11=Sons Of The Territory
TTITLE12=Uluru
EXTD=
EXTT0=
EXTT1=
EXTT2=
EXTT3=
EXTT4=
EXTT5=
EXTT6=
EXTT7=
EXTT8=
EXTT9=
EXTT10=
EXTT11=
EXTT12=
PLAYORDER=
